<svg width="51" height="64" viewBox="0 0 51 64" fill="none" xmlns="http://www.w3.org/2000/svg">
<g clip-path="url(#clip0_1303_379)">
<path d="M26.1172 57.3815C24.25 57.5015 22.4453 57.4855 20.6484 57.4775C15.0078 57.4695 9.35938 57.4375 3.71875 57.4295C3.36719 57.4295 3.08594 57.3095 2.78125 57.1574C1.57031 56.5172 0.703125 55.5728 0.164062 54.2843C0.0546875 54.0042 0 53.7321 0 53.428C0 38.9746 0 24.5212 0 10.0678C0 8.3151 2.01563 6.07426 3.78125 6.02624C6.51563 5.94621 9.25781 5.98623 12 5.96222C12.375 5.96222 12.3359 6.14629 12.2813 6.39438C12.1016 7.22669 11.9609 8.05901 12.1797 8.91533C12.4609 10.0277 13.7578 11.1242 14.8672 11.1242C18.625 11.1162 22.375 11.0921 26.1328 11.0601C26.7109 11.0601 27.2891 11.0441 27.8281 10.756C29.1562 10.0357 29.6719 8.73126 29.3203 6.86656C29.1562 5.97022 29.1562 5.96222 30.0469 5.97022C32.4141 6.01024 34.7734 5.86618 37.1406 6.10627C39.0703 6.29835 40.3594 7.41877 41.2969 9.06738C41.4063 9.26746 41.3906 9.47554 41.3906 9.68362C41.4141 18.735 41.4297 27.7944 41.4688 36.8458C41.4688 37.31 41.3516 37.43 40.9219 37.35C40.3125 37.2299 39.5156 37.35 39.1328 36.9979C38.7734 36.6617 39.0312 35.8374 39.0312 35.2212C39.0156 27.2902 39.0625 19.3672 38.9531 11.4363C38.9531 11.2042 38.9531 10.9721 38.9297 10.732C38.8281 9.43552 38.2734 8.81929 37.0078 8.65923C36.3906 8.5792 35.7656 8.54719 35.1484 8.51518C34.2578 8.47516 33.3672 8.45916 32.4766 8.41114C32.1484 8.39513 32.0234 8.48316 31.9453 8.8353C31.5703 10.588 30.7422 12.0125 29.1641 12.9328C28.1953 13.493 27.1484 13.5571 26.0938 13.5811C21.9844 13.6691 17.875 13.6531 13.7734 13.493C12.5156 13.445 11.5078 12.5087 10.7188 11.4843C10.1406 10.732 9.6875 9.89169 9.5625 8.91533C9.52344 8.61121 9.35937 8.53118 9.10156 8.51518C7.39844 8.42714 5.70312 8.41114 4 8.55519C3.24219 8.61922 2.80469 9.13941 2.70313 9.93971C2.57031 10.9721 2.58594 12.0205 2.58594 13.0609C2.52344 25.8977 2.5 38.7345 2.59375 51.5713C2.59375 52.1235 2.625 52.6757 2.67969 53.2279C2.78125 54.2443 3.22656 54.7085 4.21875 54.8125C4.98438 54.8926 5.75 54.9486 6.51563 54.9486C12.5547 54.9726 18.5938 54.9886 24.6328 54.9806C25.1016 54.9806 25.3438 55.1006 25.4766 55.5648C25.6484 56.149 25.8828 56.7173 26.1172 57.3815Z" fill="#0A3E68"/>
<path d="M38.4297 38.5104C45.25 38.3104 50.9844 44.0485 51 51.2272C51.0156 58.3019 45.3906 64 38.4297 64C31.7266 64 26.1328 58.2218 26.1328 51.2832C26.1328 44.1526 31.5547 38.5104 38.4297 38.5104ZM28.7031 51.3153C28.2266 56.1811 33.0078 61.5111 38.6094 61.407C43.7734 61.311 48.6094 57.0534 48.4609 50.9311C48.3281 45.4971 43.9531 41.0394 38.5547 41.0314C33.5078 41.0234 28.3125 45.385 28.7109 51.3153H28.7031Z" fill="#0A3E68"/>
<path d="M20.8595 9.71562C19.2658 9.77964 17.672 9.81165 16.0705 9.71562C14.6955 9.62759 13.6486 8.77126 13.2502 7.36274C12.883 6.05825 13.3049 4.81778 14.4064 4.00148C15.0627 3.51329 15.797 3.24919 16.6174 3.30521C16.9767 3.32922 17.1564 3.23319 17.258 2.84104C17.7111 1.1364 18.9611 0.0399901 20.4299 -2.49292e-05C22.2814 -0.0480429 23.672 0.896311 24.2189 2.65697C24.383 3.17717 24.6408 3.28921 25.1095 3.30521C27.3674 3.36924 28.758 5.23394 28.2424 7.45077C27.9533 8.68323 26.7345 9.69961 25.5158 9.70762C23.9611 9.71562 22.4064 9.70762 20.8517 9.70762L20.8595 9.71562ZM20.7658 7.2587C22.2345 7.25069 23.7033 7.32272 25.172 7.18667C25.6174 7.14665 25.797 6.91457 25.797 6.49041C25.797 6.07425 25.5549 5.88218 25.172 5.85817C24.7345 5.82616 24.3049 5.79415 23.8752 5.74613C22.9064 5.64209 22.2658 5.11389 22.0002 4.16954C21.9377 3.94545 21.9299 3.70536 21.8752 3.48128C21.7345 2.91307 21.2267 2.51292 20.6877 2.56894C20.1486 2.62496 19.758 2.88906 19.6564 3.48928C19.4142 5.04987 18.7814 5.64209 17.2502 5.78614C16.8439 5.82616 16.422 5.80215 16.0314 5.97822C15.8127 6.07425 15.6017 6.18629 15.5705 6.44239C15.5392 6.7305 15.7424 6.91457 15.9611 7.04262C16.3127 7.24269 16.7111 7.2587 17.1095 7.2667C18.3283 7.2667 19.5549 7.2667 20.7736 7.2667L20.7658 7.2587Z" fill="#0A3E68"/>
<path d="M20.8438 29.163C24.3282 29.163 27.8126 29.163 31.2891 29.163C32.0079 29.163 32.6016 29.7072 32.6485 30.4114C32.6876 31.1157 32.1329 31.7159 31.3516 31.7399C29.9454 31.7799 28.5313 31.796 27.1251 31.788C21.5079 31.7799 15.8907 31.7559 10.2735 31.7399C9.41414 31.7399 8.82039 31.2197 8.8282 30.4835C8.83601 29.7472 9.50789 29.163 10.336 29.163C13.836 29.163 17.3438 29.163 20.8438 29.163Z" fill="#0A3E68"/>
<path d="M20.6248 20.1516C24.2498 20.2076 27.8826 20.0235 31.5076 20.2636C32.2498 20.3116 32.6951 20.7838 32.6795 21.4721C32.6717 22.1363 32.2889 22.5285 31.5545 22.5525C30.1639 22.6005 28.7733 22.6485 27.3904 22.6485C21.8514 22.6325 16.3123 22.7285 10.7811 22.5605C10.4295 22.5525 10.0779 22.5125 9.7342 22.4564C8.99982 22.3444 8.77326 22.0643 8.81232 21.376C8.85138 20.7278 9.24982 20.2876 9.86701 20.2716C11.7733 20.2156 13.6795 20.1676 15.5858 20.1516C17.2654 20.1276 18.9451 20.1516 20.6248 20.1516Z" fill="#0A3E68"/>
<path d="M19.367 38.1423C24.4764 38.2703 28.0467 38.1583 31.6092 38.3584C31.8045 38.3664 32.1014 38.2703 32.1717 38.4864C32.2576 38.7585 31.9373 38.8385 31.7654 38.9586C31.2264 39.3507 30.6248 39.6709 30.1404 40.119C29.5233 40.6872 28.8592 40.8313 28.0545 40.8233C22.0858 40.7753 16.117 40.7673 10.1483 40.7513C9.42169 40.7513 8.82794 40.159 8.84356 39.4628C8.85919 38.8065 9.52325 38.1343 10.1717 38.1343C13.7576 38.1343 17.3436 38.1343 19.3748 38.1343L19.367 38.1423Z" fill="#0A3E68"/>
<path d="M17.1953 49.8427C14.8749 49.8427 12.5546 49.8427 10.2265 49.8427C9.50775 49.8427 8.86713 49.2265 8.83588 48.5222C8.80463 47.7779 9.29681 47.3057 10.1562 47.2817C14.7968 47.1457 19.4452 47.1697 24.0859 47.2097C25.2734 47.2177 25.2734 47.2417 25.039 48.4502C24.9531 48.9063 25.0546 49.5466 24.7343 49.7546C24.3906 49.9787 23.8202 49.8427 23.3437 49.8507C21.289 49.8507 19.2421 49.8507 17.1874 49.8507L17.1953 49.8427Z" fill="#0A3E68"/>
<path d="M45.2971 47.0416C45.2971 47.5538 45.1408 47.8419 44.9065 48.098C42.6096 50.611 40.2736 53.0759 37.7971 55.3968C36.6877 56.4452 36.0861 56.4051 35.0315 55.3327C33.9924 54.2683 32.9768 53.1799 31.9611 52.0915C31.6955 51.8114 31.4846 51.4913 31.5315 51.0752C31.5861 50.555 31.8127 50.1468 32.2971 49.9307C32.7658 49.7226 33.1565 49.8987 33.4846 50.2188C34.3752 51.0752 35.2736 51.9235 36.133 52.8118C36.4221 53.1159 36.5705 53.0919 36.8518 52.8118C38.6643 50.9471 40.4924 49.0984 42.3283 47.2577C42.7111 46.8736 43.1252 46.5214 43.5549 46.1853C43.9299 45.8972 44.344 45.9852 44.7268 46.2093C45.094 46.4254 45.2815 46.7615 45.2893 47.0576L45.2971 47.0416Z" fill="#0A3E68"/>
</g>
<defs>
<clipPath id="clip0_1303_379">
<rect width="51" height="64" fill="white"/>
</clipPath>
</defs>
</svg>
