<svg width="64" height="58" viewBox="0 0 64 58" fill="none" xmlns="http://www.w3.org/2000/svg">
<g clip-path="url(#clip0_1303_319)">
<path d="M33.3023 28.5829C33.3023 19.6601 33.3023 10.7334 33.3023 1.81065C33.3023 0.28069 33.5753 0.00395338 35.0881 0C35.9225 0 36.753 0 37.5874 0C39.3576 0 39.5799 0.221389 39.5799 1.9846C39.5799 16.3156 39.5877 30.6426 39.5604 44.9736C39.5604 45.7129 39.7436 45.8592 40.4455 45.8552C47.7251 45.8275 55.0048 45.8355 62.2883 45.8394C62.5261 45.8394 62.7679 45.8157 63.0018 45.8552C63.6179 45.9659 63.9688 46.3573 64.0078 46.9859C64.0429 47.5749 63.5711 48.081 62.959 48.1442C62.7484 48.1679 62.5301 48.1521 62.3156 48.1521C54.9892 48.1521 47.6588 48.164 40.3324 48.1363C39.6969 48.1363 39.5175 48.2945 39.5721 48.923C39.6306 49.5674 39.5877 50.2237 39.5838 50.876C39.576 52.0264 39.2095 52.4099 38.0982 52.4139C37.0767 52.4218 36.0512 52.4297 35.0296 52.406C34.628 52.3981 34.4097 52.5048 34.2147 52.9041C32.6161 56.2131 29.9881 58.0119 26.3424 58C22.724 57.9881 20.1311 56.1735 18.5286 52.9081C18.3336 52.5088 18.127 52.402 17.7254 52.406C16.0137 52.4257 14.2981 52.4257 12.5863 52.406C12.2042 52.402 11.9937 52.5325 11.7831 52.8487C10.0363 55.4263 6.99892 56.4266 4.19546 55.375C1.41539 54.3352 -0.257326 51.5758 0.031208 48.5238C0.0624009 48.1877 0.0624009 47.8477 0.0624009 47.5117C0.0624009 37.6441 0.113089 27.7804 0.031208 17.9128C0.00781335 15.0189 2.03535 13.0382 4.75303 13.0857C10.9136 13.1885 17.0781 13.1292 23.2387 13.1134C25.3052 13.1054 26.7011 14.0503 27.5355 15.944C29.3057 19.9606 31.0993 23.9654 32.8812 27.9781C32.9748 28.1915 33.0762 28.4011 33.1736 28.6145C33.2165 28.6027 33.2555 28.5908 33.2984 28.579L33.3023 28.5829ZM32.5537 34.2165C32.6824 33.5879 32.6629 33.1412 32.4718 32.7063C30.0894 27.3376 27.711 21.965 25.3169 16.6002C24.9738 15.8293 24.3539 15.434 23.5039 15.434C17.1054 15.434 10.707 15.434 4.30853 15.4379C3.16219 15.4379 2.35898 16.2247 2.35508 17.379C2.33948 23.7203 2.35508 30.0654 2.33948 36.4067C2.33948 36.8099 2.47595 36.8652 2.82297 36.8771C3.37664 36.8969 3.83674 36.9206 3.54041 36.122C3.47802 35.952 3.50921 35.7385 3.50921 35.5488C3.50921 32.1489 3.50532 28.749 3.50921 25.3491C3.50921 23.3803 4.83101 21.9531 6.6324 21.9492C8.45329 21.9452 9.76729 23.3447 9.77508 25.3174C9.78288 27.6815 9.79068 30.0457 9.76339 32.4058C9.75949 32.8605 9.88426 32.9633 10.3171 32.9593C12.4577 32.9356 14.5983 32.9514 16.7389 32.9474C18.1426 32.9474 19.1602 33.5839 19.7334 34.8727C20.2715 36.0746 19.9752 37.3199 18.9341 38.3438C18.6807 38.5929 18.6884 38.7075 18.9224 38.9487C19.7919 39.8382 20.6458 40.7475 21.488 41.6646C21.6986 41.8939 21.8506 41.9414 22.1431 41.7753C24.233 40.5972 26.4438 40.3126 28.7443 41.0044C29.1498 41.127 29.2901 40.9728 29.4422 40.6565C30.0193 39.4428 30.5885 38.2292 31.2046 37.0352C31.4112 36.6359 31.3956 36.3908 31.0915 36.0429C29.2277 33.916 27.3952 31.7614 25.5509 29.6187C25.2623 29.2827 24.9738 28.9506 24.6541 28.579C24.2369 29.255 23.8704 29.8757 23.4766 30.4766C23.0672 31.1052 22.4433 31.2752 21.8857 30.9352C21.3165 30.5912 21.141 29.935 21.5231 29.3024C22.7825 27.2071 24.0614 25.1198 25.352 23.0442C25.7458 22.4117 26.397 22.2733 26.9546 22.6291C27.5082 22.981 27.6486 23.6293 27.2782 24.2777C26.9468 24.8588 26.5997 25.44 26.2215 25.9895C25.9681 26.3572 25.9681 26.5944 26.2878 26.9581C27.75 28.6066 29.1693 30.2947 30.608 31.967C31.228 32.6865 31.8479 33.4021 32.5537 34.2204V34.2165ZM2.35118 44.2541C2.42916 44.2818 2.46035 44.3055 2.47205 44.2976C2.65141 44.179 2.82297 44.0525 3.00623 43.9378C4.32413 43.0958 5.7668 42.7597 7.29525 42.9969C10.5783 43.5109 12.7852 46.1478 12.7774 49.5161C12.7774 49.9944 12.8905 50.1209 13.3545 50.1091C14.6607 50.0774 15.9708 50.0814 17.277 50.1091C17.6903 50.117 17.7878 49.9905 17.7761 49.5833C17.7098 47.4287 18.3726 45.5113 19.7217 43.8509C19.9596 43.5583 19.9947 43.3883 19.71 43.0997C18.5754 41.9335 17.4602 40.7475 16.3529 39.5535C16.1072 39.2887 15.8616 39.1661 15.4912 39.178C14.5398 39.2056 13.5884 39.1859 12.6409 39.1859C9.40857 39.1859 6.17621 39.1859 2.94384 39.1938C2.7138 39.1938 2.34338 39.004 2.34728 39.5338C2.36288 41.1151 2.35118 42.6965 2.35118 44.2581V44.2541ZM32.6122 49.3619C32.6122 45.7406 29.914 42.9693 26.3697 42.9534C22.841 42.9376 20.1038 45.705 20.0804 49.3184C20.057 52.9515 22.8176 55.7861 26.3658 55.7624C29.9179 55.7387 32.6122 52.9832 32.6122 49.3579V49.3619ZM35.5872 26.2267V45.618C35.5872 46.9187 35.5833 48.2233 35.5911 49.524C35.5911 49.7019 35.4897 50.0102 35.6925 50.0419C36.1565 50.113 36.6556 50.1605 37.104 50.0577C37.4978 49.9667 37.2794 49.52 37.2833 49.2393C37.295 38.2885 37.295 27.3416 37.295 16.3907C37.295 11.9273 37.295 7.46793 37.2911 3.00457C37.2911 2.79899 37.4081 2.49063 37.2053 2.3997C36.7647 2.20203 36.2617 2.27715 35.8055 2.34435C35.4117 2.40365 35.6028 2.82271 35.6028 3.07177C35.5911 10.7888 35.595 18.5058 35.595 26.2228L35.5872 26.2267ZM6.49593 45.2306C4.26174 45.199 2.40967 47.0531 2.39407 49.3382C2.37847 51.5679 4.20715 53.4734 6.38676 53.505C8.57416 53.5327 10.4418 51.6865 10.4847 49.4528C10.5276 47.1598 8.73402 45.2622 6.49983 45.2306H6.49593ZM5.79409 30.4212C5.79409 32.1093 5.79409 33.7974 5.79409 35.4855C5.79409 36.5253 6.13721 36.8652 7.16658 36.8652C10.2586 36.8652 13.3506 36.8652 16.4426 36.8652C16.7311 36.8652 17.0079 36.8613 17.2731 36.715C17.5772 36.545 17.7371 36.3039 17.6864 35.952C17.6357 35.612 17.4407 35.3709 17.1054 35.2958C16.8988 35.2483 16.6804 35.2641 16.466 35.2641C13.9666 35.2641 11.4712 35.2641 8.97187 35.2641C7.86452 35.2641 7.48631 34.8727 7.48631 33.7302C7.48631 30.9549 7.48631 28.1836 7.48631 25.4084C7.48631 24.6098 7.21337 24.2461 6.6363 24.25C6.06313 24.254 5.79409 24.6216 5.79019 25.4242C5.79019 27.0885 5.79019 28.7529 5.79019 30.4173L5.79409 30.4212ZM33.2555 44.1157V38.0592C32.581 39.4389 31.9844 40.6605 31.3801 41.8821C31.2826 42.0758 31.267 42.226 31.4736 42.3723C32.1287 42.8428 32.6551 43.4555 33.2555 44.1197V44.1157Z" fill="#0A3E68"/>
<path d="M41.7397 27.4562C41.7397 22.1784 41.7397 16.8967 41.7397 11.619C41.7397 10.3025 42.0751 9.9704 43.3969 9.9704C48.7231 9.9704 54.0492 9.9704 59.3754 9.9704C60.6348 9.9704 61.0013 10.3381 61.0013 11.5992C61.0013 22.2061 61.0013 32.813 61.0013 43.4239C61.0013 44.6573 60.6504 45.0092 59.4339 45.0092C54.0609 45.0092 48.688 45.0092 43.3111 45.0092C42.0712 45.0092 41.7397 44.6771 41.7397 43.4397C41.7397 38.1105 41.7397 32.7853 41.7397 27.4562ZM51.3783 42.6925C53.6359 42.6925 55.8974 42.6925 58.155 42.6925C58.4942 42.6925 58.7243 42.6965 58.7243 42.2181C58.7048 37.8536 58.7087 33.489 58.7243 29.1245C58.7243 28.7252 58.58 28.6382 58.2252 28.6462C57.2036 28.6659 56.1782 28.6699 55.1566 28.6462C54.7589 28.6382 54.6731 28.8003 54.6848 29.1561C54.7043 29.6859 54.7121 30.2196 54.677 30.7454C54.6263 31.4768 54.2052 31.9037 53.4839 31.9195C52.1036 31.9433 50.7233 31.9433 49.3469 31.9195C48.5749 31.9077 48.1694 31.4847 48.1343 30.7019C48.1109 30.2196 48.1031 29.7373 48.1343 29.255C48.1655 28.7924 48.0368 28.6185 47.5455 28.6382C46.5707 28.6778 45.596 28.6738 44.6212 28.6382C44.1689 28.6224 44.0168 28.7331 44.0168 29.2273C44.0363 33.5207 44.0363 37.814 44.0168 42.1034C44.0168 42.5739 44.1377 42.7044 44.6017 42.6965C46.8593 42.6727 49.1208 42.6846 51.3783 42.6846V42.6925ZM51.3861 26.3374C53.6476 26.3374 55.9052 26.3334 58.1667 26.3413C58.5176 26.3413 58.7282 26.3255 58.7282 25.8551C58.7126 21.4905 58.7126 17.126 58.7282 12.7615C58.7282 12.3661 58.5917 12.2752 58.233 12.2792C57.2114 12.2989 56.1859 12.3029 55.1644 12.2792C54.7745 12.2713 54.677 12.4215 54.6887 12.7852C54.7121 13.315 54.716 13.8487 54.6848 14.3745C54.638 15.1454 54.2091 15.5684 53.4488 15.5763C52.0919 15.5961 50.7389 15.5961 49.382 15.5763C48.5749 15.5644 48.1655 15.1414 48.1343 14.3191C48.1148 13.8131 48.107 13.3031 48.1343 12.801C48.1616 12.378 47.9939 12.2673 47.6001 12.2752C46.6019 12.2989 45.5999 12.3108 44.6056 12.2752C44.1221 12.2554 44.0207 12.4175 44.0207 12.884C44.0363 17.1774 44.0402 21.4708 44.0207 25.7602C44.0207 26.2465 44.1611 26.3492 44.6134 26.3453C46.871 26.3216 49.1325 26.3334 51.3939 26.3334L51.3861 26.3374ZM51.3355 13.2675C51.4836 13.2675 51.5811 13.2715 51.6747 13.2675C52.0178 13.2477 52.4389 13.4375 52.4194 12.7575C52.4038 12.125 52.01 12.3068 51.6942 12.291C51.3861 12.2752 51.0781 12.3029 50.7701 12.2831C50.4816 12.2634 50.427 12.4017 50.3997 12.6626C50.2905 13.6273 51.0157 13.145 51.3355 13.2675ZM51.3589 29.6108C51.5031 29.6108 51.6435 29.6068 51.7878 29.6108C52.1309 29.6226 52.4272 29.6661 52.4233 29.1206C52.4194 28.5631 52.0919 28.6501 51.7644 28.6501C51.4329 28.6501 51.0976 28.6659 50.7662 28.6501C50.3295 28.6224 50.4231 28.9308 50.4075 29.1838C50.388 29.4645 50.4465 29.6582 50.7896 29.6147C50.9767 29.591 51.1678 29.6108 51.3589 29.6147V29.6108Z" fill="#0A3E68"/>
<path d="M30.0427 49.3777C30.0349 51.4493 28.3544 53.1571 26.3308 53.1453C24.311 53.1334 22.6266 51.3939 22.6422 49.3421C22.6578 47.2864 24.3656 45.5548 26.3658 45.5666C28.3856 45.5785 30.0505 47.3061 30.0427 49.3817V49.3777ZM27.7695 49.3777C27.7773 48.5712 27.1223 47.8873 26.3464 47.8873C25.5782 47.8873 24.9037 48.5949 24.9154 49.3817C24.9271 50.1565 25.5548 50.8009 26.3152 50.8207C27.1145 50.8405 27.7617 50.1961 27.7695 49.3777Z" fill="#0A3E68"/>
<path d="M7.72404 49.3421C7.73573 50.0419 7.16646 50.6388 6.47242 50.6546C5.75888 50.6704 5.19741 50.1328 5.17402 49.4093C5.15062 48.6661 5.73549 48.0335 6.44123 48.0375C7.11188 48.0375 7.71234 48.6542 7.72404 49.3421Z" fill="#0A3E68"/>
</g>
<defs>
<clipPath id="clip0_1303_319">
<rect width="64" height="58" fill="white"/>
</clipPath>
</defs>
</svg>
