<svg width="58" height="58" viewBox="0 0 58 58" fill="none" xmlns="http://www.w3.org/2000/svg">
<g clip-path="url(#clip0_1303_354)">
<path d="M24.4762 58C24.4556 57.8556 24.325 57.8419 24.2287 57.8006C23.3005 57.3469 22.8743 56.5906 22.888 55.573C22.8949 54.6311 22.8743 53.6823 22.8949 52.7404C22.9018 52.4379 22.7918 52.3141 22.5168 52.2454C20.6329 51.7435 18.8522 50.9941 17.1609 50.0315C16.8996 49.8803 16.7484 49.894 16.549 50.1072C15.8821 50.8016 15.2014 51.4822 14.5139 52.156C13.4826 53.1667 12.1694 53.1735 11.145 52.156C9.36431 50.3891 7.58361 48.6152 5.82353 46.8276C4.86099 45.8514 4.86099 44.5313 5.82353 43.5481C6.50419 42.8469 7.20547 42.1524 7.90675 41.4718C8.113 41.2724 8.14738 41.128 7.99613 40.8599C7.03358 39.1686 6.27043 37.3879 5.78228 35.504C5.69978 35.1809 5.54164 35.1121 5.23226 35.119C4.26971 35.1396 3.30717 35.1328 2.34463 35.119C0.997074 35.1053 0.0276568 34.1496 0.0207815 32.802C0.0139062 30.2719 0.0139062 27.7418 0.0207815 25.2117C0.0207815 23.8642 0.990198 22.9016 2.34463 22.8879C3.30717 22.881 4.26971 22.8741 5.23226 22.8879C5.54164 22.8879 5.69978 22.826 5.78228 22.5028C6.27043 20.619 7.02671 18.8383 7.98925 17.147C8.14051 16.8789 8.12676 16.7414 7.91362 16.5351C7.23297 15.8819 6.57294 15.2082 5.90603 14.5344C4.84724 13.4687 4.85411 12.1624 5.91979 11.0899C7.65236 9.35041 9.38494 7.61096 11.1244 5.88526C12.1901 4.82646 13.4964 4.83334 14.5689 5.89901C15.2289 6.54529 15.8821 7.19844 16.5284 7.86534C16.7209 8.06473 16.8584 8.14036 17.1403 7.97535C18.8385 6.9853 20.6467 6.24277 22.5443 5.72713C22.8399 5.64462 22.9155 5.52087 22.9086 5.22523C22.888 4.28331 22.8949 3.33452 22.9086 2.39261C22.9155 0.962545 23.8574 3.92948e-06 25.2737 3.92948e-06C27.7832 3.92948e-06 30.2927 -0.00687137 32.8022 3.92948e-06C34.1566 3.92948e-06 35.1192 0.962545 35.1398 2.3101C35.1535 3.29327 35.1535 4.27644 35.1398 5.25273C35.1398 5.52087 35.2154 5.63087 35.4904 5.7065C37.388 6.21527 39.1962 6.96468 40.9013 7.94097C41.1557 8.08535 41.3069 8.08535 41.5201 7.86534C42.1732 7.18469 42.847 6.52466 43.5208 5.85776C44.5521 4.84709 45.8584 4.82646 46.8828 5.83713C48.6566 7.59033 50.4167 9.35041 52.1699 11.1242C53.2081 12.1693 53.1874 13.4756 52.1562 14.5344C51.4961 15.2082 50.8292 15.8751 50.1486 16.5351C49.9561 16.7207 49.9286 16.8582 50.0729 17.1057C51.0561 18.8108 51.7986 20.6121 52.3143 22.5097C52.3899 22.7916 52.493 22.9016 52.8024 22.8947C53.6137 22.8741 54.425 22.8879 55.2363 22.8879C56.8589 22.8879 57.4226 23.2523 58.0345 24.7029V33.4277C57.4708 34.789 56.4257 35.2496 55.0094 35.1396C54.2806 35.0778 53.5381 35.1396 52.8024 35.119C52.5068 35.1121 52.383 35.1946 52.3074 35.4903C51.7918 37.3879 51.0424 39.1892 50.0592 40.8943C49.8942 41.1762 49.9767 41.3068 50.1692 41.4993C50.8567 42.1731 51.5443 42.8469 52.2112 43.5413C53.1668 44.5313 53.1874 45.8445 52.2249 46.8276C50.4511 48.629 48.6635 50.4166 46.8622 52.1904C45.8584 53.1735 44.5452 53.1529 43.5414 52.1698C42.8539 51.496 42.1732 50.8153 41.5063 50.1278C41.3069 49.9215 41.1626 49.894 40.8944 50.0453C39.2031 51.0078 37.4293 51.771 35.5386 52.2523C35.2223 52.3348 35.1398 52.4791 35.1467 52.7954C35.1673 53.7786 35.1673 54.7549 35.1467 55.738C35.126 56.7143 34.6585 57.4087 33.7716 57.835C33.6685 57.8831 33.4897 57.835 33.4553 58.0138H24.5037L24.4762 58ZM28.9589 55.7312C30.0933 55.7312 31.2278 55.7037 32.3553 55.7449C32.8022 55.7587 32.8778 55.6143 32.8641 55.2086C32.8366 54.0192 32.8503 52.8298 32.8572 51.6404C32.8572 50.8703 33.146 50.4853 33.8954 50.3134C36.288 49.7772 38.5156 48.8352 40.5988 47.5564C41.3138 47.1164 41.7195 47.1714 42.3107 47.7558C43.1701 48.6083 44.0296 49.454 44.8683 50.3272C45.109 50.5816 45.2396 50.5747 45.4802 50.3272C47.0822 48.6977 48.6979 47.082 50.3273 45.4801C50.568 45.2395 50.5955 45.1157 50.3342 44.8682C49.4473 44.0157 48.5879 43.1425 47.7285 42.2693C47.2197 41.7606 47.1441 41.2793 47.5153 40.6949C48.8491 38.5704 49.7911 36.2878 50.3686 33.8471C50.5405 33.1183 50.9117 32.857 51.668 32.8502C52.8781 32.8502 54.0812 32.8433 55.2913 32.8502C55.6007 32.8502 55.7519 32.8295 55.7519 32.4377C55.7313 30.1344 55.7313 27.8312 55.7519 25.528C55.7519 25.198 55.6488 25.1292 55.3394 25.1292C54.15 25.143 52.9606 25.1361 51.7711 25.1292C50.8911 25.1292 50.5336 24.8611 50.3411 24.0085C49.7979 21.6366 48.8629 19.4296 47.591 17.3601C47.1647 16.6726 47.2266 16.2257 47.8041 15.6482C48.6429 14.8025 49.4817 13.9569 50.3273 13.1249C50.5473 12.9118 50.6436 12.7812 50.3617 12.513C48.7185 10.8973 47.0891 9.2679 45.4734 7.63158C45.2465 7.4047 45.1227 7.39782 44.9027 7.63158C44.0502 8.51162 43.177 9.37791 42.3039 10.2373C41.7745 10.7598 41.3001 10.8217 40.6744 10.4298C38.5774 9.12352 36.3361 8.18848 33.9229 7.63158C33.1253 7.44595 32.8641 7.08843 32.8641 6.27027C32.8641 5.06022 32.8503 3.85017 32.8641 2.64699C32.8641 2.33073 32.7816 2.24135 32.4584 2.24135C30.1552 2.2551 27.852 2.2551 25.5488 2.24135C25.2256 2.24135 25.1431 2.33073 25.1431 2.64699C25.1637 3.85704 25.15 5.06022 25.1431 6.27027C25.1431 7.08843 24.875 7.4597 24.0843 7.63846C21.6986 8.18848 19.471 9.1304 17.3878 10.4092C16.6865 10.8423 16.2602 10.7873 15.6758 10.2029C14.8164 9.35041 13.957 8.50474 13.1182 7.63846C12.912 7.42532 12.7882 7.37032 12.5476 7.61783C10.9181 9.2679 9.27493 10.9111 7.62486 12.5405C7.41173 12.7537 7.43923 12.8706 7.63861 13.0699C8.51865 13.9294 9.38493 14.7956 10.2443 15.6688C10.8081 16.2326 10.87 16.6726 10.4644 17.3395C9.16493 19.4433 8.22301 21.6847 7.67986 24.091C7.50798 24.8405 7.12296 25.1223 6.34605 25.1223C5.12225 25.1223 3.89157 25.1361 2.66777 25.1223C2.34463 25.1223 2.26213 25.2117 2.26213 25.528C2.27588 27.8312 2.27588 30.1344 2.26213 32.4377C2.26213 32.7608 2.35838 32.8433 2.66777 32.8364C3.89157 32.8158 5.12225 32.8227 6.34605 32.8364C7.12296 32.8364 7.51485 33.1252 7.67986 33.8677C8.22301 36.2603 9.16493 38.481 10.4437 40.5711C10.8837 41.293 10.8356 41.6918 10.2512 42.2831C9.39869 43.1425 8.55302 44.0019 7.68674 44.8407C7.45985 45.0607 7.38422 45.1845 7.65236 45.4526C9.29556 47.0683 10.9181 48.6977 12.5407 50.334C12.7676 50.5678 12.8913 50.5609 13.1113 50.334C13.9364 49.4815 14.7889 48.6427 15.6277 47.8039C16.3015 47.1302 16.6727 47.0752 17.4703 47.5633C19.526 48.8284 21.7192 49.7428 24.0706 50.2859C24.8544 50.4647 25.1431 50.8359 25.1431 51.6404C25.1431 52.8504 25.1637 54.0605 25.1362 55.2636C25.1294 55.6487 25.2531 55.7243 25.6106 55.7174C26.7244 55.6968 27.8382 55.7105 28.952 55.7105L28.9589 55.7312Z" fill="#0A3E68"/>
<path d="M45.549 28.9312C45.5422 37.546 38.99 44.71 30.5609 45.4526C21.6161 46.2432 13.8058 40.0142 12.6095 31.1451C11.4201 22.3034 17.6491 13.9912 26.4495 12.6711C30.1346 12.1211 33.6135 12.7261 36.8999 14.4656C37.3124 14.6856 37.6081 14.9606 37.6493 15.4488C37.6837 15.8819 37.5324 16.2325 37.1818 16.4801C36.7899 16.7551 36.3636 16.7551 35.9511 16.5282C34.8167 15.9163 33.6342 15.4488 32.3828 15.1394C24.38 13.1455 16.2603 18.5014 14.9402 26.6555C13.6958 34.3558 18.6323 41.4718 26.2913 43.0187C34.026 44.5863 41.7814 39.2304 43.0671 31.4682C43.5621 28.4706 43.1771 25.6104 41.8914 22.8672C41.7195 22.4959 41.5889 22.1316 41.7333 21.7259C41.8983 21.279 42.2489 21.0178 42.7164 20.9903C43.2389 20.9559 43.6102 21.224 43.844 21.6915C44.5521 23.1353 45.0471 24.6548 45.3153 26.243C45.4734 27.178 45.5697 28.1131 45.549 28.9243V28.9312Z" fill="#0A3E68"/>
<path d="M38.8796 25.8718C38.8934 26.2224 38.7284 26.4905 38.4946 26.7243C35.0913 30.1276 31.6949 33.5308 28.2848 36.9272C27.7004 37.5116 27.0954 37.4979 26.5041 36.9066C24.1802 34.5896 21.8564 32.2658 19.5394 29.9419C18.955 29.3507 18.9481 28.7525 19.5325 28.1612C20.8182 26.8549 22.1108 25.5624 23.4171 24.2767C23.9946 23.706 24.6134 23.7129 25.2047 24.2836C25.8441 24.9023 26.4766 25.5211 27.0816 26.1674C27.3497 26.4562 27.4873 26.408 27.7416 26.1536C29.3573 24.5173 30.9937 22.8948 32.6231 21.2653C33.4413 20.4471 33.9707 20.4403 34.7751 21.2447C35.992 22.4547 37.202 23.6717 38.419 24.8886C38.694 25.1636 38.914 25.4592 38.8865 25.8649L38.8796 25.8718ZM24.3177 26.573C23.534 27.3568 22.7983 28.1131 22.042 28.8488C21.8426 29.0413 21.9114 29.1306 22.0695 29.2888C23.7677 30.9801 25.4659 32.6714 27.1572 34.3765C27.3429 34.5621 27.446 34.5965 27.6523 34.3902C30.4093 31.6195 33.1731 28.8556 35.9439 26.0986C36.1501 25.8924 36.1157 25.7961 35.9301 25.6105C35.2907 24.9917 34.6513 24.3729 34.0532 23.7267C33.7781 23.4241 33.6269 23.4585 33.3588 23.7335C31.7156 25.4042 30.0586 27.0543 28.4017 28.7044C27.6866 29.4125 27.1366 29.4125 26.4147 28.6906C25.7203 27.9962 25.0396 27.2949 24.3315 26.5662L24.3177 26.573Z" fill="#0A3E68"/>
<path d="M41.2588 18.3776C41.2519 18.9964 40.7638 19.4846 40.145 19.4846C39.5193 19.4846 38.9899 18.9483 39.0037 18.3295C39.0174 17.7314 39.5262 17.2226 40.1312 17.2226C40.7706 17.2226 41.2657 17.7314 41.2519 18.3776H41.2588Z" fill="#0A3E68"/>
</g>
<defs>
<clipPath id="clip0_1303_354">
<rect width="58" height="58" fill="white"/>
</clipPath>
</defs>
</svg>
