<svg width="58" height="58" viewBox="0 0 58 58" fill="none" xmlns="http://www.w3.org/2000/svg">
<g clip-path="url(#clip0_1303_330)">
<path d="M15.0661 58C14.4503 57.6703 14.2484 57.1623 14.2618 56.4693C14.2955 54.4139 14.2719 52.3551 14.2753 50.2996C14.2753 49.361 14.6791 48.9641 15.6113 48.9338C15.7627 48.9304 15.9747 49.0347 16.0589 48.8362C16.1497 48.6243 15.9646 48.4965 15.8233 48.3686C14.4974 47.1643 13.2018 45.9196 11.8389 44.759C9.41925 42.6968 7.7198 40.1536 6.44774 37.2605C4.34109 32.4768 2.37242 27.6325 0.282607 22.842C-0.380346 21.3148 0.168189 19.6495 1.51765 18.8422C2.88731 18.0247 4.61704 18.3611 5.65354 19.7202C6.52514 20.8572 7.18136 22.139 7.93517 23.3534C8.72937 24.6317 9.5202 25.9168 10.2875 27.212C10.4625 27.508 10.5937 27.5753 10.9403 27.434C12.273 26.8924 13.5787 27.2725 14.521 28.4399C15.756 29.9638 17.018 31.4675 18.1992 33.0318C19.6025 34.8888 21.2784 36.4363 23.1663 37.7785C24.6571 38.8382 26.1411 39.9114 27.3627 41.2974C27.9853 42.0005 28.5103 42.7742 29.005 43.6758C30.341 41.0181 32.5755 39.3428 34.8706 37.755C37.1051 36.2075 38.8954 34.2463 40.5343 32.1101C41.4732 30.8822 42.4626 29.6947 43.4351 28.4903C44.4447 27.2389 45.6528 26.889 47.1537 27.4777C47.5205 27.619 47.5744 27.4172 47.6955 27.2153C49.0988 24.9177 50.5022 22.62 51.9088 20.3224C52.5045 19.3535 53.2785 18.6201 54.4597 18.4519C56.0514 18.2299 57.4749 19.1819 57.8855 20.7361C57.9091 20.8202 57.8788 20.9279 57.9999 20.9649V22.324C57.8788 22.3374 57.8754 22.4451 57.8384 22.5258C55.7317 27.4105 53.7395 32.3456 51.5588 37.1999C50.519 39.5144 49.3714 41.7515 47.4667 43.5042C45.7033 45.1257 43.9399 46.7472 42.1765 48.3686C42.0386 48.4965 41.8501 48.6176 41.941 48.8329C42.0251 49.0314 42.2371 48.9271 42.3885 48.9304C43.3207 48.9574 43.7245 49.3577 43.7245 50.2963C43.7279 52.3517 43.7044 54.4105 43.738 56.466C43.7481 57.159 43.5462 57.6669 42.9337 57.9966H15.0661V58ZM34.8841 48.9405C36.3176 48.9405 37.7512 48.9338 39.1882 48.9473C39.5214 48.9473 39.7266 48.917 39.6661 48.5066C39.5685 47.8438 39.8814 47.3762 40.3694 46.9423C41.9915 45.4991 43.5697 44.0122 45.1918 42.569C46.8811 41.0619 48.1297 39.2655 49.0753 37.2134C51.3704 32.2245 53.3626 27.1077 55.5971 22.0919C55.6442 21.9876 55.6846 21.8833 55.7082 21.7723C55.7957 21.3854 55.688 21.0591 55.3616 20.827C55.0217 20.5881 54.6818 20.652 54.3688 20.8875C54.1534 21.0456 54.002 21.2643 53.864 21.4897C52.2723 24.0901 50.6805 26.6939 49.0921 29.2943C48.9844 29.4693 48.8936 29.6408 48.9138 29.8696C48.9743 30.5189 48.833 31.1479 48.5974 31.7501C47.6013 34.2934 46.4437 36.7592 45.0235 39.0973C44.6163 39.7667 43.9736 39.9618 43.3981 39.6153C42.8294 39.2722 42.7015 38.6061 43.0784 37.9366C43.4654 37.247 43.876 36.5708 44.2394 35.8711C45.1245 34.1689 45.9523 32.4397 46.5749 30.6198C46.7129 30.2127 46.7735 29.7922 46.2687 29.5534C45.7975 29.3313 45.4913 29.5601 45.2053 29.9167C44.2664 31.0975 43.3174 32.2682 42.3717 33.4456C40.8641 35.3295 39.4069 37.2537 37.4114 38.6868C35.9273 39.7499 34.4129 40.786 33.0736 42.0408C31.2159 43.7834 30.1559 45.8927 30.1357 48.4797C30.1357 48.8362 30.2097 48.9574 30.59 48.9506C32.0236 48.9271 33.4572 48.9405 34.8942 48.9405H34.8841ZM23.0552 48.9405C24.5258 48.9405 25.9998 48.9304 27.4704 48.9473C27.7868 48.9506 27.881 48.8665 27.8776 48.5436C27.8776 47.975 27.8103 47.4166 27.706 46.8582C27.2449 44.4259 25.8147 42.6295 23.9167 41.1561C22.7086 40.2209 21.4769 39.3193 20.2486 38.411C18.1655 36.8736 16.7319 34.7475 15.1132 32.7863C14.2989 31.7972 13.5047 30.788 12.7004 29.7922C12.448 29.4794 12.1316 29.3717 11.748 29.55C11.3408 29.735 11.287 30.0647 11.3913 30.4482C11.462 30.7005 11.536 30.9562 11.6302 31.1984C12.5422 33.4927 13.5955 35.7164 14.8642 37.8357C15.0527 38.1486 15.231 38.4614 15.1435 38.8416C15.0325 39.326 14.7397 39.6591 14.245 39.7499C13.7032 39.8508 13.296 39.622 13.0133 39.1511C11.5595 36.7458 10.3548 34.2193 9.35867 31.592C9.16349 31.0773 9.04907 30.539 9.08609 29.9873C9.10291 29.7048 9.03561 29.4794 8.8909 29.2472C7.3227 26.6973 5.76459 24.1406 4.19975 21.5906C4.07187 21.382 3.9339 21.1768 3.76564 21.0019C3.44594 20.6789 3.0623 20.5343 2.64837 20.8202C2.25801 21.0894 2.16714 21.4762 2.35223 21.9169C2.54742 22.3845 2.74933 22.8521 2.95125 23.3164C4.96366 27.9554 6.8381 32.6551 8.94811 37.2537C9.88365 39.289 11.1322 41.0686 12.8047 42.5622C14.4234 44.0054 16.0084 45.489 17.6271 46.9322C18.1117 47.3628 18.4314 47.8304 18.3371 48.4965C18.2799 48.8901 18.4583 48.9506 18.8049 48.9473C20.2217 48.9304 21.6351 48.9405 23.0519 48.9405H23.0552ZM22.2038 51.2046C20.4472 51.2046 18.6939 51.2113 16.9372 51.1978C16.6175 51.1978 16.5266 51.2819 16.5334 51.6015C16.5502 52.8462 16.5536 54.0909 16.5334 55.339C16.53 55.662 16.6209 55.7427 16.9406 55.7427C20.4505 55.7326 23.9638 55.7326 27.4738 55.7427C27.7935 55.7427 27.8843 55.6586 27.8776 55.339C27.8608 54.1111 27.8541 52.8866 27.8776 51.6587C27.8843 51.2853 27.78 51.1945 27.4132 51.1978C25.6767 51.218 23.9403 51.2079 22.2038 51.2079V51.2046ZM35.7994 55.7326C37.5561 55.7326 39.3094 55.7259 41.066 55.7393C41.3857 55.7393 41.4766 55.6552 41.4698 55.3356C41.453 54.0909 41.4496 52.8462 41.4698 51.5982C41.4732 51.2786 41.3823 51.1945 41.066 51.1945C37.5561 51.2046 34.0427 51.2046 30.5328 51.1945C30.2131 51.1945 30.1222 51.2786 30.129 51.5982C30.1492 52.826 30.1525 54.0506 30.129 55.2785C30.1222 55.6485 30.2232 55.7461 30.5934 55.7393C32.3298 55.7191 34.0663 55.7292 35.8028 55.7292L35.7994 55.7326Z" fill="#0A3E68"/>
<path d="M29.0153 32.2076C27.1274 32.2076 25.2395 32.211 23.3516 32.2076C22.3319 32.2076 21.9618 31.8309 21.9618 30.8015C21.9618 28.9882 21.9651 27.1783 21.9584 25.3651C21.9584 24.9244 22.0358 24.5308 22.4127 24.2718C22.6281 24.1238 22.618 23.9387 22.5978 23.7268C22.5204 22.8757 22.1906 22.1221 21.7127 21.4325C20.9084 20.2685 20.057 19.1416 19.2595 17.9742C14.74 11.3739 18.4888 1.61811 27.1813 0.158101C33.4272 -0.89149 39.4207 3.46499 40.4572 9.71544C41.0057 13.0223 40.2956 15.9928 38.3 18.6706C37.489 19.7572 36.6342 20.8135 35.9444 21.9876C35.6953 22.4115 35.5002 22.8555 35.4429 23.3534C35.3925 23.7739 35.3386 24.1507 35.7694 24.4467C36.0016 24.6048 36.042 24.9244 36.042 25.2205C36.0386 27.1447 36.0453 29.069 36.0352 30.9966C36.0319 31.7871 35.6078 32.2009 34.7901 32.2043C32.8652 32.2144 30.9402 32.2043 29.012 32.2076H29.0153ZM30.1326 19.0541C30.1326 20.5814 30.1427 22.1121 30.1259 23.6393C30.1225 23.9623 30.2134 24.0531 30.533 24.043C31.2498 24.0195 31.9666 24.0195 32.6834 24.043C33.0132 24.0531 33.1647 23.9791 33.1613 23.6192C33.1546 22.361 33.6526 21.271 34.3492 20.2652C35.0694 19.229 35.8266 18.2165 36.5703 17.1971C40.7466 11.4715 37.2467 3.25305 30.21 2.37839C26.2053 1.88051 23.0353 3.43135 20.9959 6.89298C18.9701 10.3311 19.0778 13.8162 21.3964 17.1433C21.9348 17.9171 22.5271 18.6538 23.0757 19.4174C24.0045 20.7126 24.866 22.0414 24.8458 23.7268C24.8458 24.0363 25.0275 24.0363 25.253 24.0329C25.9496 24.0262 26.6496 24.0027 27.3462 24.0397C27.7635 24.0632 27.8779 23.9556 27.8745 23.5216C27.851 20.578 27.8577 17.6345 27.8711 14.6909C27.8711 14.368 27.8005 14.1291 27.5548 13.9037C27.0702 13.4563 26.6092 12.982 26.1515 12.5076C25.6467 11.9828 25.64 11.3066 26.1145 10.8458C26.5688 10.4051 27.2216 10.4185 27.7332 10.8996C28.0899 11.236 28.4399 11.5825 28.773 11.9391C28.9413 12.1174 29.049 12.1275 29.2206 11.9425C29.5403 11.596 29.8802 11.2663 30.2201 10.94C30.7552 10.4253 31.408 10.3916 31.8791 10.8424C32.3671 11.31 32.3469 11.9929 31.8085 12.5446C31.3474 13.019 30.883 13.4899 30.4052 13.9407C30.1965 14.1392 30.1225 14.3444 30.1259 14.6304C30.1393 16.1005 30.1326 17.5739 30.1326 19.044V19.0541ZM29.0086 29.9436C30.4422 29.9436 31.8724 29.9335 33.306 29.9503C33.6526 29.9537 33.8007 29.8932 33.7839 29.4996C33.7502 28.5778 33.757 27.6527 33.7839 26.7309C33.794 26.3878 33.7031 26.2902 33.3464 26.2902C30.4456 26.3071 27.5413 26.3071 24.6405 26.2902C24.2636 26.2902 24.2165 26.4282 24.2232 26.7444C24.24 27.6661 24.2468 28.5913 24.2232 29.513C24.2131 29.8629 24.3107 29.9537 24.6607 29.9503C26.1111 29.9302 27.5615 29.9403 29.012 29.9403L29.0086 29.9436Z" fill="#0A3E68"/>
<path d="M12.7204 1.15388C12.9762 1.13706 13.1949 1.23798 13.4103 1.36245C14.255 1.85024 15.1064 2.32794 15.941 2.82919C16.6005 3.22278 16.789 3.87541 16.4356 4.45067C16.0958 5.00238 15.4564 5.14367 14.8102 4.78035C13.9252 4.28583 13.0468 3.78122 12.1786 3.25979C11.6906 2.96375 11.5123 2.45914 11.6637 1.9478C11.7983 1.49365 12.2358 1.16397 12.717 1.15388H12.7204Z" fill="#0A3E68"/>
<path d="M46.3595 2.26736C46.3696 2.70132 46.1811 3.03773 45.8143 3.25303C44.909 3.78792 44.0038 4.31944 43.0817 4.82742C42.4827 5.1571 41.8332 4.96198 41.5236 4.41027C41.2174 3.86529 41.3621 3.23957 41.9342 2.89307C42.8462 2.338 43.7716 1.79302 44.7139 1.29177C45.4845 0.881358 46.3494 1.41961 46.3561 2.26736H46.3595Z" fill="#0A3E68"/>
<path d="M15.3993 18.3376C15.9916 18.3477 16.3517 18.5966 16.5267 19.0609C16.7118 19.552 16.6209 20.0432 16.1767 20.3224C15.1907 20.9447 14.1777 21.5335 13.148 22.0751C12.6297 22.3476 12.0172 22.0751 11.7514 21.5637C11.4923 21.0759 11.5899 20.4502 12.0677 20.1542C13.0403 19.5453 14.0465 18.9902 15.046 18.4251C15.1705 18.3544 15.332 18.351 15.3993 18.3342V18.3376Z" fill="#0A3E68"/>
<path d="M46.3596 20.9582C46.3697 21.8531 45.5385 22.4418 44.7914 22.0616C43.7751 21.5436 42.7891 20.9548 41.8232 20.3426C41.3218 20.0264 41.241 19.3906 41.5372 18.8893C41.8266 18.3982 42.4323 18.166 42.9506 18.4419C43.9433 18.97 44.9125 19.5419 45.8783 20.1172C46.2014 20.3089 46.3629 20.6319 46.3562 20.9548L46.3596 20.9582Z" fill="#0A3E68"/>
<path d="M11.8389 10.5397C12.3672 10.5397 12.8956 10.5195 13.4239 10.5464C14.0734 10.5767 14.4874 11.0073 14.5042 11.6229C14.521 12.2352 14.1374 12.7499 13.5013 12.7734C12.3706 12.8205 11.2365 12.8205 10.1092 12.7734C9.4866 12.7465 9.07604 12.2049 9.0996 11.6162C9.12652 11.0174 9.564 10.5699 10.1967 10.543C10.7418 10.5195 11.2904 10.5397 11.8389 10.5397Z" fill="#0A3E68"/>
<path d="M46.1813 10.5363C46.7097 10.5363 47.238 10.5195 47.7664 10.5397C48.4159 10.5632 48.8399 10.9837 48.8702 11.5926C48.9038 12.2318 48.5034 12.7499 47.8404 12.7734C46.7299 12.8171 45.616 12.8171 44.5021 12.7734C43.8559 12.7499 43.4488 12.2116 43.4824 11.5792C43.5161 10.9837 43.9535 10.5699 44.5963 10.5329C44.6333 10.5329 44.6703 10.5329 44.7107 10.5329C45.202 10.5329 45.69 10.5329 46.1813 10.5329C46.1813 10.5329 46.1813 10.5329 46.1813 10.5363Z" fill="#0A3E68"/>
</g>
<defs>
<clipPath id="clip0_1303_330">
<rect width="58" height="58" fill="white"/>
</clipPath>
</defs>
</svg>
